<svg xmlns="http://www.w3.org/2000/svg" width="563.797" height="442.844" viewBox="0 0 563.797 442.844">
  <g id="Group_16" data-name="Group 16" transform="translate(-186.505 -293.173)">
    <path id="Path_1" data-name="Path 1" d="M374.1,591.531c.4-.31,2.54-1.92,6.05-4.07Z" fill="#e2af0c"/>
    <path id="Path_2" data-name="Path 2" d="M496.749,573.081h-11.4A72.818,72.818,0,0,1,496.749,573.081Z" fill="#e2af0c"/>
    <path id="Path_3" data-name="Path 3" d="M546.279,591l-7.23-4.88c2.37,1.43,4.74,3.02,7.08,4.77A1.42,1.42,0,0,0,546.279,591Z" fill="#e2af0c"/>
    <path id="Path_4" data-name="Path 4" d="M318.4,629.071q-1.47-5.565-2.51-11.28l1.52,6.82Z" fill="#a7a7a7"/>
    <g id="Group_2" data-name="Group 2">
      <g id="Group_1" data-name="Group 1">
        <path id="Path_5" data-name="Path 5" d="M597.043,700.084H652.2c-.5,2.04-.98,4.09-1.55,6.11-6.12,21.81-31.44,26.98-46.91,15.99-1.22-.87-2.32-1.9-3.52-2.78-3.9-2.88-5.26-6.04-4.19-11.35A53.8,53.8,0,0,0,597.043,700.084Z" fill="#00354a"/>
        <path id="Path_6" data-name="Path 6" d="M652.383,688.864v4.22H596.9a46.231,46.231,0,0,0-10.44-25.16c-17.11-21.12-34.66-41.89-52.04-62.8a70.533,70.533,0,0,1-6.97-9.16c.92.51,1.87.96,2.75,1.53,36.17,23.53,72.29,47.16,108.56,70.55,7.35,4.74,11.63,11.03,13.02,19.5A5.186,5.186,0,0,0,652.383,688.864Z" fill="#004a6d"/>
        <path id="Path_7" data-name="Path 7" d="M325.1,711.424a6.371,6.371,0,0,1-1.43,4.78c-13.32,14.93-31.5,13.81-42.85,5.75-6.75-4.8-9.83-11.68-11.63-19.38-.19-.83-.41-1.66-.62-2.49H323.7A64.569,64.569,0,0,0,325.1,711.424Z" fill="#00354a"/>
        <path id="Path_8" data-name="Path 8" d="M393.763,596.544c-4.2,4.85-8.5,9.62-12.6,14.56-15.54,18.7-31.2,37.31-46.45,56.24a48.173,48.173,0,0,0-10.76,25.74h-55.57v-4.22c.5-1.78.97-3.58,1.51-5.35,1.76-5.77,4.78-10.6,9.98-13.98q55.53-36.075,111.03-72.21A4.21,4.21,0,0,1,393.763,596.544Z" fill="#004a6d"/>
        <path id="Path_9" data-name="Path 9" d="M573.933,693.084h-63.18c-2.16-12.32-5.69-24.43-8.75-36.6-6.17-24.51-12.47-48.99-18.71-73.49-.12-.46-.19-.94-.28-1.41l.57-.21c9.25,10.46,18.66,20.79,27.71,31.42,18.5,21.77,36.81,43.71,55.19,65.58A33.577,33.577,0,0,1,573.933,693.084Z" fill="#004a6d"/>
        <path id="Path_10" data-name="Path 10" d="M574.523,700.084a30.984,30.984,0,0,1-5.07,15.69,30.281,30.281,0,0,1-50.97-.42,50.4,50.4,0,0,1-6.4-15.27Z" fill="#00354a"/>
        <path id="Path_11" data-name="Path 11" d="M345.973,700.084h60.69c-.06.68-.11,1.37-.15,2.05-.83,13.76-12.23,25.82-26.2,27.11-12.87,1.19-23.22-3.48-29.73-14.7A32.481,32.481,0,0,1,345.973,700.084Z" fill="#00354a"/>
        <path id="Path_12" data-name="Path 12" d="M436.893,582.614q-3.78,14.16-7.57,28.31c-6.96,25.97-14,51.93-20.83,77.93-.36,1.39-.67,2.8-.92,4.23h-61.04a29.039,29.039,0,0,1,5.82-11.84c14.81-18.64,30.11-36.92,45.51-55.09,12.1-14.27,24.67-28.15,37.02-42.21.48-.56.89-1.18,1.33-1.77C436.443,582.324,436.663,582.464,436.893,582.614Z" fill="#004a6d"/>
        <path id="Path_13" data-name="Path 13" d="M488.043,693.084H430.8c2.45-10.75,5.53-21.38,8.36-32.04q9.78-36.825,19.74-73.6c.26-.96.56-1.9.84-2.85.23-.06.45-.12.68-.17q3.555,13.89,7.12,27.79C474.393,639.174,481.333,666.094,488.043,693.084Z" fill="#004a6d"/>
        <path id="Path_14" data-name="Path 14" d="M480.2,727.574a30.093,30.093,0,0,1-34.72,5.08c-11.97-6.2-18.78-18.91-16.18-32.57h60.15C490.753,710.284,488.343,719.734,480.2,727.574Z" fill="#00354a"/>
      </g>
    </g>
    <g id="Group_3" data-name="Group 3">
      <rect id="Rectangle_1" data-name="Rectangle 1" width="8" height="116.108" transform="matrix(0.345, -0.939, 0.939, 0.345, 186.505, 553.339)" fill="#e2af0c"/>
    </g>
    <g id="Group_4" data-name="Group 4">
      <rect id="Rectangle_2" data-name="Rectangle 2" width="8.001" height="46.957" transform="translate(260.094 524.162) rotate(-63.435)" fill="#e2af0c"/>
    </g>
    <g id="Group_5" data-name="Group 5">
      <rect id="Rectangle_3" data-name="Rectangle 3" width="8" height="134.201" transform="matrix(0.604, -0.797, 0.797, 0.604, 199.469, 421.773)" fill="#e2af0c"/>
    </g>
    <g id="Group_6" data-name="Group 6">
      <rect id="Rectangle_4" data-name="Rectangle 4" width="7.999" height="56.639" transform="matrix(0.671, -0.742, 0.742, 0.671, 283.2, 429.55)" fill="#e2af0c"/>
    </g>
    <g id="Group_7" data-name="Group 7">
      <rect id="Rectangle_5" data-name="Rectangle 5" width="8" height="90.427" transform="matrix(0.84, -0.542, 0.542, 0.84, 317.521, 364.751)" fill="#e2af0c"/>
    </g>
    <g id="Group_8" data-name="Group 8">
      <rect id="Rectangle_6" data-name="Rectangle 6" width="8" height="36.77" transform="translate(399.184 380.107) rotate(-22.38)" fill="#e2af0c"/>
    </g>
    <g id="Group_9" data-name="Group 9">
      <rect id="Rectangle_7" data-name="Rectangle 7" width="46.957" height="8.001" transform="matrix(0.894, -0.447, 0.447, 0.894, 631.135, 545.794)" fill="#e2af0c"/>
    </g>
    <g id="Group_10" data-name="Group 10">
      <rect id="Rectangle_8" data-name="Rectangle 8" width="56.639" height="7.999" transform="matrix(0.742, -0.671, 0.671, 0.742, 609.242, 474.408)" fill="#e2af0c"/>
    </g>
    <g id="Group_11" data-name="Group 11">
      <rect id="Rectangle_9" data-name="Rectangle 9" width="90.427" height="8" transform="translate(574.559 450.202) rotate(-57.183)" fill="#e2af0c"/>
    </g>
    <g id="Group_12" data-name="Group 12">
      <rect id="Rectangle_10" data-name="Rectangle 10" width="36.77" height="8" transform="translate(527.224 423.849) rotate(-67.614)" fill="#e2af0c"/>
    </g>
    <g id="Group_13" data-name="Group 13">
      <rect id="Rectangle_11" data-name="Rectangle 11" width="8" height="118.398" transform="translate(476.499 293.199) rotate(-0.186)" fill="#e2af0c"/>
    </g>
    <g id="Group_14" data-name="Group 14">
      <rect id="Rectangle_12" data-name="Rectangle 12" width="116.108" height="8" transform="translate(638.547 593.619) rotate(-20.153)" fill="#e2af0c"/>
    </g>
    <g id="Group_15" data-name="Group 15">
      <rect id="Rectangle_13" data-name="Rectangle 13" width="134.201" height="8" transform="matrix(0.797, -0.604, 0.604, 0.797, 625.509, 504.182)" fill="#e2af0c"/>
    </g>
    <path id="Path_15" data-name="Path 15" d="M619.379,590.081c0,1.05-.01,2.09-.03,3.13a153.156,153.156,0,0,1-5.65,38.31c0,.02,0,.03-.01.04a3.08,3.08,0,0,1-4.69,1.71l-58.75-39.6-.09-.06-3.88-2.61a1.42,1.42,0,0,1-.15-.11c-2.34-1.75-4.71-3.34-7.08-4.77a.3.3,0,0,0-.11-.06,94.865,94.865,0,0,0-42.19-12.98,72.818,72.818,0,0,0-11.4,0h-58.4c-20.29,0-37.92,8.92-46.8,14.38-3.51,2.15-5.65,3.76-6.05,4.07a.218.218,0,0,0-.05.04.031.031,0,0,1-.02.01l-51.84,34.94a3.111,3.111,0,0,1-4.78-1.91l-1.52-6.82a153.307,153.307,0,0,1-2.51-27.71c0-1.58.02-3.15.07-4.72q.2-6.21.87-12.28a153,153,0,0,1,304.12,0A153.872,153.872,0,0,1,619.379,590.081Z" fill="#e2af0c"/>
    <path id="Path_16" data-name="Path 16" d="M550.159,593.611a40.051,40.051,0,0,1-3.88-2.61Z" fill="#e2af0c"/>
  </g>
</svg>
